<?xml version="1.0" encoding="UTF-8" standalone="no"?><!DOCTYPE svg PUBLIC "-//W3C//DTD SVG 1.1//EN" "http://www.w3.org/Graphics/SVG/1.1/DTD/svg11.dtd"><svg width="100%" height="100%" viewBox="0 0 380 332" version="1.1" xmlns="http://www.w3.org/2000/svg" xmlns:xlink="http://www.w3.org/1999/xlink" xml:space="preserve" xmlns:serif="http://www.serif.com/" style="fill-rule:evenodd;clip-rule:evenodd;stroke-linejoin:round;stroke-miterlimit:2;"><g id="path1" transform="matrix(1,0,0,1,-145.332,-172.245)"><path d="M149.2,292.309L188.783,292.309L188.783,241.927C188.783,231.082 197.587,222.105 208.429,221.894L243.986,221.201C256.606,220.955 267.245,231.017 267.701,243.631L269.835,302.611C270.28,314.927 260.69,325.809 248.397,326.679C199.268,330.156 185.897,327.825 150.722,328.087L149.2,499.362L191.828,499.362L193.35,368.431C193.35,368.431 348.155,394.973 348.155,267.519C348.155,140.065 149.2,184.216 149.2,184.216L149.2,292.309Z" style="fill-rule:nonzero;"/></g><g id="path2" transform="matrix(1,0,0,1,-145.332,-172.245)"><path d="M186.759,366.872L244.315,489.799C246.421,494.297 249.947,497.932 254.914,497.932L289.956,497.932C294.936,497.932 299.295,494.587 300.584,489.777L328.145,386.92L355.156,487.728C356.526,492.841 361.159,496.396 366.452,496.396L398.084,496.396C404.84,496.396 410.753,491.858 412.502,485.333L435.144,400.832L438.506,193.144C438.506,188.701 438.691,181.938 434.249,181.938L403.387,181.938C398.688,181.938 397.4,188.447 397.257,193.144C395.708,243.963 395.074,349.664 395.074,395.835L383.044,440.733L364.584,371.841L359.611,344.456C359.611,344.456 340.878,378.956 286.219,387.462C281.802,398.252 270.234,443.031 270.234,443.031L231.022,367.533L186.759,366.872Z" style="fill-rule:nonzero;"/></g></svg>